{
	"asset":{
		"generator":"Khronos glTF Blender I/O v4.1.63",
		"version":"2.0"
	},
	"scene":0,
	"scenes":[
		{
			"name":"Scene",
			"nodes":[
				0
			]
		}
	],
	"nodes":[
		{
			"mesh":0,
			"name":"\u0e17\u0e23\u0e07\u0e01\u0e25\u0e21",
			"scale":[
				1.5,
				1.5,
				1.5
			]
		},
		{
			"mesh":1,
			"name":"Torus.004",
			"rotation":[
				0.7071068286895752,
				0,
				0,
				0.7071068286895752
			]
		},
		{
			"mesh":2,
			"name":"Torus.001",
			"rotation":[
				0.7071068286895752,
				0,
				0,
				0.7071068286895752
			],
			"scale":[
				0.6728981137275696,
				0.6728981137275696,
				0.6728981137275696
			],
			"translation":[
				-0.008662000298500061,
				0,
				0.005669073201715946
			]
		},
		{
			"mesh":3,
			"name":"\u0e17\u0e23\u0e07\u0e01\u0e25\u0e21.001",
			"scale":[
				0.04127933084964752,
				0.04127933084964752,
				0.04127933084964752
			],
			"translation":[
				0.2272404432296753,
				0.3679819107055664,
				0.0045702094212174416
			]
		},
		{
			"mesh":4,
			"name":"Torus.002",
			"rotation":[
				0.7071068286895752,
				0,
				0,
				0.7071068286895752
			],
			"scale":[
				1.5,
				1.5,
				1.5
			]
		},
		{
			"mesh":5,
			"name":"\u0e17\u0e23\u0e07\u0e01\u0e25\u0e21.015",
			"scale":[
				-0.052177008241415024,
				-0.052177008241415024,
				-0.052177008241415024
			],
			"translation":[
				-0.7464394569396973,
				0.5862153172492981,
				0.00993616133928299
			]
		},
		{
			"mesh":6,
			"name":"\u0e17\u0e23\u0e07\u0e01\u0e25\u0e21.003",
			"scale":[
				0.04747048765420914,
				0.04747048765420914,
				0.04747048765420914
			],
			"translation":[
				0.047273024916648865,
				0.6397477984428406,
				0.008737158961594105
			]
		},
		{
			"mesh":7,
			"name":"\u0e17\u0e23\u0e07\u0e01\u0e25\u0e21.002",
			"scale":[
				0.04127933084964752,
				0.04127933084964752,
				0.04127933084964752
			],
			"translation":[
				-0.25921186804771423,
				-0.3474559783935547,
				0.004570113494992256
			]
		},
		{
			"mesh":8,
			"name":"\u0e17\u0e23\u0e07\u0e01\u0e25\u0e21.004",
			"scale":[
				0.04747048765420914,
				0.04747048765420914,
				0.04747048765420914
			],
			"translation":[
				0.6393914222717285,
				0.005000762175768614,
				-0.00032127276062965393
			]
		},
		{
			"mesh":9,
			"name":"\u0e17\u0e23\u0e07\u0e01\u0e25\u0e21.005",
			"scale":[
				0.04747048765420914,
				0.04747048765420914,
				0.04747048765420914
			],
			"translation":[
				-0.635919451713562,
				0.008222813718020916,
				0.006684018298983574
			]
		},
		{
			"mesh":10,
			"name":"\u0e17\u0e23\u0e07\u0e01\u0e25\u0e21.006",
			"scale":[
				0.04747048765420914,
				0.04747048765420914,
				0.04747048765420914
			],
			"translation":[
				0.48654860258102417,
				0.39879485964775085,
				0.0016140714287757874
			]
		},
		{
			"mesh":11,
			"name":"\u0e17\u0e23\u0e07\u0e01\u0e25\u0e21.007",
			"scale":[
				0.04747048765420914,
				0.04747048765420914,
				0.04747048765420914
			],
			"translation":[
				-0.49799877405166626,
				0.3836270570755005,
				0.015256538987159729
			]
		},
		{
			"mesh":12,
			"name":"\u0e17\u0e23\u0e07\u0e01\u0e25\u0e21.008",
			"rotation":[
				0,
				0,
				1,
				1.6292068494294654e-07
			],
			"scale":[
				0.04747048765420914,
				0.04747048765420914,
				0.04747048765420914
			],
			"translation":[
				-0.021023675799369812,
				-0.6314370036125183,
				0.007734077516943216
			]
		},
		{
			"mesh":13,
			"name":"\u0e17\u0e23\u0e07\u0e01\u0e25\u0e21.012",
			"rotation":[
				0,
				0,
				1,
				1.6292068494294654e-07
			],
			"scale":[
				0.04747048765420914,
				0.04747048765420914,
				0.04747048765420914
			],
			"translation":[
				-0.491743266582489,
				-0.3986542224884033,
				0.002063129097223282
			]
		},
		{
			"mesh":14,
			"name":"\u0e17\u0e23\u0e07\u0e01\u0e25\u0e21.013",
			"rotation":[
				0,
				0,
				1,
				1.6292068494294654e-07
			],
			"scale":[
				0.04747048765420914,
				0.04747048765420914,
				0.04747048765420914
			],
			"translation":[
				0.499807208776474,
				-0.3957131803035736,
				0.005603328347206116
			]
		},
		{
			"mesh":15,
			"name":"\u0e17\u0e23\u0e07\u0e01\u0e25\u0e21.009",
			"scale":[
				-0.052177008241415024,
				-0.052177008241415024,
				-0.052177008241415024
			],
			"translation":[
				0.7462072372436523,
				-0.6145930290222168,
				-0.002595365047454834
			]
		}
	],
	"materials":[
		{
			"doubleSided":true,
			"name":"\u0e27\u0e31\u0e2a\u0e14\u0e38",
			"pbrMetallicRoughness":{
				"baseColorTexture":{
					"index":0
				},
				"metallicFactor":0,
				"roughnessFactor":0.5688073635101318
			}
		}
	],
	"meshes":[
		{
			"name":"Mesh",
			"primitives":[
				{
					"attributes":{
						"POSITION":0,
						"NORMAL":1,
						"TEXCOORD_0":2
					},
					"indices":3,
					"material":0
				}
			]
		}
	],
	"textures":[
		{
			"sampler":0,
			"source":0
		}
	],
	"images":[
		{
			"mimeType":"image/png",
			"name":"\u0e2d\u0e30\u0e15\u0e2d\u0e21\u0e14\u0e2d\u0e25\u0e15\u0e31\u0e19",
			"uri":"dalton.png"
		}
	],
	"accessors":[
		{
			"bufferView":0,
			"componentType":5126,
			"count":33441,
			"max":[
				0.9872310161590576,
				0.9975767135620117,
				0.9872307181358337
			],
			"min":[
				-0.9872305393218994,
				-0.9975767135620117,
				-0.9872310161590576
			],
			"type":"VEC3"
		},
		{
			"bufferView":1,
			"componentType":5126,
			"count":33441,
			"type":"VEC3"
		},
		{
			"bufferView":2,
			"componentType":5126,
			"count":33441,
			"type":"VEC2"
		},
		{
			"bufferView":3,
			"componentType":5123,
			"count":190464,
			"type":"SCALAR"
		}
	],
	"bufferViews":[
		{
			"buffer":0,
			"byteLength":401292,
			"byteOffset":0,
			"target":34962
		},
		{
			"buffer":0,
			"byteLength":401292,
			"byteOffset":401292,
			"target":34962
		},
		{
			"buffer":0,
			"byteLength":267528,
			"byteOffset":802584,
			"target":34962
		},
		{
			"buffer":0,
			"byteLength":380928,
			"byteOffset":1070112,
			"target":34963
		}
	],
	"samplers":[
		{
			"magFilter":9729,
			"minFilter":9987
		}
	],
	"buffers":[
		{
			"byteLength":1451040,
			"uri":"dalton.bin"
		}
	]
}
