{
	"asset":{
		"generator":"Khronos glTF Blender I/O v4.1.63",
		"version":"2.0"
	},
	"extensionsUsed":[
		"KHR_materials_unlit"
	],
	"scene":0,
	"scenes":[
		{
			"name":"Scene",
			"nodes":[
				12,
				13,
				14,
				15,
				16,
				17,
				18,
				19,
				20,
				21
			]
		}
	],
	"nodes":[
		{
			"mesh":0,
			"name":"GN Instance",
			"translation":[
				0,
				-1,
				0
			]
		},
		{
			"mesh":0,
			"name":"GN Instance",
			"translation":[
				0.7235999703407288,
				-0.4472149908542633,
				0.5257200002670288
			]
		},
		{
			"mesh":0,
			"name":"GN Instance",
			"translation":[
				-0.27638500928878784,
				-0.4472149908542633,
				0.8506399989128113
			]
		},
		{
			"mesh":0,
			"name":"GN Instance",
			"translation":[
				-0.8944249749183655,
				-0.4472149908542633,
				0
			]
		},
		{
			"mesh":0,
			"name":"GN Instance",
			"translation":[
				-0.27638500928878784,
				-0.4472149908542633,
				-0.8506399989128113
			]
		},
		{
			"mesh":0,
			"name":"GN Instance",
			"translation":[
				0.7235999703407288,
				-0.4472149908542633,
				-0.5257200002670288
			]
		},
		{
			"mesh":0,
			"name":"GN Instance",
			"translation":[
				0.27638500928878784,
				0.4472149908542633,
				0.8506399989128113
			]
		},
		{
			"mesh":0,
			"name":"GN Instance",
			"translation":[
				-0.7235999703407288,
				0.4472149908542633,
				0.5257200002670288
			]
		},
		{
			"mesh":0,
			"name":"GN Instance",
			"translation":[
				-0.7235999703407288,
				0.4472149908542633,
				-0.5257200002670288
			]
		},
		{
			"mesh":0,
			"name":"GN Instance",
			"translation":[
				0.27638500928878784,
				0.4472149908542633,
				-0.8506399989128113
			]
		},
		{
			"mesh":0,
			"name":"GN Instance",
			"translation":[
				0.8944249749183655,
				0.4472149908542633,
				0
			]
		},
		{
			"mesh":0,
			"name":"GN Instance",
			"translation":[
				0,
				1,
				0
			]
		},
		{
			"children":[
				0,
				1,
				2,
				3,
				4,
				5,
				6,
				7,
				8,
				9,
				10,
				11
			],
			"name":"\u0e23\u0e30\u0e19\u0e32\u0e1a"
		},
		{
			"mesh":1,
			"name":"Torus.005",
			"scale":[
				8.638406753540039,
				8.638406753540039,
				2.7017717361450195
			]
		},
		{
			"mesh":2,
			"name":"Torus.001",
			"rotation":[
				0,
				0,
				-0.7071068286895752,
				0.7071068286895752
			],
			"scale":[
				8.638406753540039,
				8.638406753540039,
				2.7017717361450195
			]
		},
		{
			"mesh":3,
			"name":"Torus.002",
			"rotation":[
				0,
				0,
				-0.3826834261417389,
				0.9238795638084412
			],
			"scale":[
				8.638405799865723,
				8.638405799865723,
				2.7017717361450195
			]
		},
		{
			"mesh":4,
			"name":"Torus.003",
			"rotation":[
				0,
				0,
				-0.9238795638084412,
				0.3826834261417389
			],
			"scale":[
				8.638405799865723,
				8.638405799865723,
				2.7017717361450195
			]
		},
		{
			"mesh":5,
			"name":"\u0e17\u0e23\u0e07\u0e01\u0e25\u0e21",
			"scale":[
				0.31897395849227905,
				0.31897395849227905,
				0.31897395849227905
			],
			"translation":[
				-5.122380256652832,
				-0.013238035142421722,
				2.260875701904297
			]
		},
		{
			"mesh":6,
			"name":"\u0e17\u0e23\u0e07\u0e01\u0e25\u0e21.001",
			"scale":[
				0.31897395849227905,
				0.31897395849227905,
				0.31897395849227905
			],
			"translation":[
				0.022163107991218567,
				6.076205730438232,
				-1.9176000356674194
			]
		},
		{
			"mesh":7,
			"name":"\u0e17\u0e23\u0e07\u0e01\u0e25\u0e21.002",
			"scale":[
				0.31897395849227905,
				0.31897395849227905,
				0.31897395849227905
			],
			"translation":[
				6.044392108917236,
				5.988102436065674,
				-0.04028656333684921
			]
		},
		{
			"mesh":8,
			"name":"\u0e17\u0e23\u0e07\u0e01\u0e25\u0e21.003",
			"scale":[
				0.31897395849227905,
				0.31897395849227905,
				0.31897395849227905
			],
			"translation":[
				1.584975242614746,
				-1.5186457633972168,
				-2.6171586513519287
			]
		},
		{
			"name":"\u0e23\u0e30\u0e19\u0e32\u0e1a.002"
		}
	],
	"materials":[
		{
			"doubleSided":true,
			"name":"\u0e27\u0e31\u0e2a\u0e14\u0e38.001",
			"pbrMetallicRoughness":{
				"baseColorTexture":{
					"index":0
				},
				"metallicFactor":0,
				"roughnessFactor":0.5
			}
		},
		{
			"doubleSided":true,
			"extensions":{
				"KHR_materials_unlit":{}
			},
			"name":"\u0e27\u0e31\u0e2a\u0e14\u0e38.004",
			"pbrMetallicRoughness":{
				"baseColorTexture":{
					"index":1
				},
				"metallicFactor":0,
				"roughnessFactor":0.9
			}
		},
		{
			"doubleSided":true,
			"name":"\u0e27\u0e31\u0e2a\u0e14\u0e38",
			"pbrMetallicRoughness":{
				"baseColorTexture":{
					"index":2
				},
				"metallicFactor":0,
				"roughnessFactor":0.5
			}
		}
	],
	"meshes":[
		{
			"name":"Mesh",
			"primitives":[
				{
					"attributes":{
						"POSITION":0,
						"NORMAL":1
					},
					"indices":2,
					"material":0
				}
			]
		},
		{
			"name":"Torus.005",
			"primitives":[
				{
					"attributes":{
						"POSITION":3,
						"NORMAL":4,
						"TEXCOORD_0":5
					},
					"indices":6,
					"material":1
				}
			]
		},
		{
			"name":"Torus.006",
			"primitives":[
				{
					"attributes":{
						"POSITION":7,
						"NORMAL":8,
						"TEXCOORD_0":9
					},
					"indices":6,
					"material":1
				}
			]
		},
		{
			"name":"Torus.007",
			"primitives":[
				{
					"attributes":{
						"POSITION":10,
						"NORMAL":11,
						"TEXCOORD_0":12
					},
					"indices":6,
					"material":1
				}
			]
		},
		{
			"name":"Torus.008",
			"primitives":[
				{
					"attributes":{
						"POSITION":13,
						"NORMAL":14,
						"TEXCOORD_0":15
					},
					"indices":6,
					"material":1
				}
			]
		},
		{
			"name":"\u0e17\u0e23\u0e07\u0e01\u0e25\u0e21",
			"primitives":[
				{
					"attributes":{
						"POSITION":16,
						"NORMAL":17,
						"TEXCOORD_0":18
					},
					"indices":19,
					"material":2
				}
			]
		},
		{
			"name":"\u0e17\u0e23\u0e07\u0e01\u0e25\u0e21.001",
			"primitives":[
				{
					"attributes":{
						"POSITION":20,
						"NORMAL":21,
						"TEXCOORD_0":22
					},
					"indices":19,
					"material":2
				}
			]
		},
		{
			"name":"\u0e17\u0e23\u0e07\u0e01\u0e25\u0e21.002",
			"primitives":[
				{
					"attributes":{
						"POSITION":23,
						"NORMAL":24,
						"TEXCOORD_0":25
					},
					"indices":19,
					"material":2
				}
			]
		},
		{
			"name":"\u0e17\u0e23\u0e07\u0e01\u0e25\u0e21.003",
			"primitives":[
				{
					"attributes":{
						"POSITION":26,
						"NORMAL":27,
						"TEXCOORD_0":28
					},
					"indices":19,
					"material":2
				}
			]
		}
	],
	"textures":[
		{
			"sampler":0,
			"source":0
		},
		{
			"sampler":0,
			"source":1
		},
		{
			"sampler":0,
			"source":2
		}
	],
	"images":[
		{
			"mimeType":"image/png",
			"name":"Untitled",
			"uri":"../rutf/textures/rutherford-1.png"
		},
		{
			"mimeType":"image/png",
			"name":"Untitled",
			"uri":"../rutf/textures/rutherford-2.png"
		},
		{
			"mimeType":"image/png",
			"name":"Untitled",
			"uri":"../rutf/textures/rutherford-3.png"
		}
	],
	"accessors":[
		{
			"bufferView":0,
			"componentType":5126,
			"count":482,
			"max":[
				1,
				1,
				1
			],
			"min":[
				-1,
				-1,
				-1
			],
			"type":"VEC3"
		},
		{
			"bufferView":1,
			"componentType":5126,
			"count":482,
			"type":"VEC3"
		},
		{
			"bufferView":2,
			"componentType":5123,
			"count":2880,
			"type":"SCALAR"
		},
		{
			"bufferView":3,
			"componentType":5126,
			"count":36762,
			"max":[
				1.005552053451538,
				0.005903503857553005,
				1.005552053451538
			],
			"min":[
				-1.0055519342422485,
				-0.005903512239456177,
				-1.005552053451538
			],
			"type":"VEC3"
		},
		{
			"bufferView":4,
			"componentType":5126,
			"count":36762,
			"type":"VEC3"
		},
		{
			"bufferView":5,
			"componentType":5126,
			"count":36762,
			"type":"VEC2"
		},
		{
			"bufferView":6,
			"componentType":5123,
			"count":55296,
			"type":"SCALAR"
		},
		{
			"bufferView":7,
			"componentType":5126,
			"count":36762,
			"max":[
				1.005552053451538,
				0.005903503857553005,
				1.005552053451538
			],
			"min":[
				-1.0055519342422485,
				-0.005903512239456177,
				-1.005552053451538
			],
			"type":"VEC3"
		},
		{
			"bufferView":8,
			"componentType":5126,
			"count":36762,
			"type":"VEC3"
		},
		{
			"bufferView":9,
			"componentType":5126,
			"count":36762,
			"type":"VEC2"
		},
		{
			"bufferView":10,
			"componentType":5126,
			"count":36762,
			"max":[
				1.005552053451538,
				0.005903503857553005,
				1.005552053451538
			],
			"min":[
				-1.0055519342422485,
				-0.005903512239456177,
				-1.005552053451538
			],
			"type":"VEC3"
		},
		{
			"bufferView":11,
			"componentType":5126,
			"count":36762,
			"type":"VEC3"
		},
		{
			"bufferView":12,
			"componentType":5126,
			"count":36762,
			"type":"VEC2"
		},
		{
			"bufferView":13,
			"componentType":5126,
			"count":36762,
			"max":[
				1.005552053451538,
				0.005903503857553005,
				1.005552053451538
			],
			"min":[
				-1.0055519342422485,
				-0.005903512239456177,
				-1.005552053451538
			],
			"type":"VEC3"
		},
		{
			"bufferView":14,
			"componentType":5126,
			"count":36762,
			"type":"VEC3"
		},
		{
			"bufferView":15,
			"componentType":5126,
			"count":36762,
			"type":"VEC2"
		},
		{
			"bufferView":16,
			"componentType":5126,
			"count":1984,
			"max":[
				0.9999997019767761,
				1,
				0.9999993443489075
			],
			"min":[
				-0.9999990463256836,
				-1,
				-1
			],
			"type":"VEC3"
		},
		{
			"bufferView":17,
			"componentType":5126,
			"count":1984,
			"type":"VEC3"
		},
		{
			"bufferView":18,
			"componentType":5126,
			"count":1984,
			"type":"VEC2"
		},
		{
			"bufferView":19,
			"componentType":5123,
			"count":2880,
			"type":"SCALAR"
		},
		{
			"bufferView":20,
			"componentType":5126,
			"count":1984,
			"max":[
				0.9999997019767761,
				1,
				0.9999993443489075
			],
			"min":[
				-0.9999990463256836,
				-1,
				-1
			],
			"type":"VEC3"
		},
		{
			"bufferView":21,
			"componentType":5126,
			"count":1984,
			"type":"VEC3"
		},
		{
			"bufferView":22,
			"componentType":5126,
			"count":1984,
			"type":"VEC2"
		},
		{
			"bufferView":23,
			"componentType":5126,
			"count":1984,
			"max":[
				0.9999997019767761,
				1,
				0.9999993443489075
			],
			"min":[
				-0.9999990463256836,
				-1,
				-1
			],
			"type":"VEC3"
		},
		{
			"bufferView":24,
			"componentType":5126,
			"count":1984,
			"type":"VEC3"
		},
		{
			"bufferView":25,
			"componentType":5126,
			"count":1984,
			"type":"VEC2"
		},
		{
			"bufferView":26,
			"componentType":5126,
			"count":1984,
			"max":[
				0.9999997019767761,
				1,
				0.9999993443489075
			],
			"min":[
				-0.9999990463256836,
				-1,
				-1
			],
			"type":"VEC3"
		},
		{
			"bufferView":27,
			"componentType":5126,
			"count":1984,
			"type":"VEC3"
		},
		{
			"bufferView":28,
			"componentType":5126,
			"count":1984,
			"type":"VEC2"
		}
	],
	"bufferViews":[
		{
			"buffer":0,
			"byteLength":5784,
			"byteOffset":0,
			"target":34962
		},
		{
			"buffer":0,
			"byteLength":5784,
			"byteOffset":5784,
			"target":34962
		},
		{
			"buffer":0,
			"byteLength":5760,
			"byteOffset":11568,
			"target":34963
		},
		{
			"buffer":0,
			"byteLength":441144,
			"byteOffset":17328,
			"target":34962
		},
		{
			"buffer":0,
			"byteLength":441144,
			"byteOffset":458472,
			"target":34962
		},
		{
			"buffer":0,
			"byteLength":294096,
			"byteOffset":899616,
			"target":34962
		},
		{
			"buffer":0,
			"byteLength":110592,
			"byteOffset":1193712,
			"target":34963
		},
		{
			"buffer":0,
			"byteLength":441144,
			"byteOffset":1304304,
			"target":34962
		},
		{
			"buffer":0,
			"byteLength":441144,
			"byteOffset":1745448,
			"target":34962
		},
		{
			"buffer":0,
			"byteLength":294096,
			"byteOffset":2186592,
			"target":34962
		},
		{
			"buffer":0,
			"byteLength":441144,
			"byteOffset":2480688,
			"target":34962
		},
		{
			"buffer":0,
			"byteLength":441144,
			"byteOffset":2921832,
			"target":34962
		},
		{
			"buffer":0,
			"byteLength":294096,
			"byteOffset":3362976,
			"target":34962
		},
		{
			"buffer":0,
			"byteLength":441144,
			"byteOffset":3657072,
			"target":34962
		},
		{
			"buffer":0,
			"byteLength":441144,
			"byteOffset":4098216,
			"target":34962
		},
		{
			"buffer":0,
			"byteLength":294096,
			"byteOffset":4539360,
			"target":34962
		},
		{
			"buffer":0,
			"byteLength":23808,
			"byteOffset":4833456,
			"target":34962
		},
		{
			"buffer":0,
			"byteLength":23808,
			"byteOffset":4857264,
			"target":34962
		},
		{
			"buffer":0,
			"byteLength":15872,
			"byteOffset":4881072,
			"target":34962
		},
		{
			"buffer":0,
			"byteLength":5760,
			"byteOffset":4896944,
			"target":34963
		},
		{
			"buffer":0,
			"byteLength":23808,
			"byteOffset":4902704,
			"target":34962
		},
		{
			"buffer":0,
			"byteLength":23808,
			"byteOffset":4926512,
			"target":34962
		},
		{
			"buffer":0,
			"byteLength":15872,
			"byteOffset":4950320,
			"target":34962
		},
		{
			"buffer":0,
			"byteLength":23808,
			"byteOffset":4966192,
			"target":34962
		},
		{
			"buffer":0,
			"byteLength":23808,
			"byteOffset":4990000,
			"target":34962
		},
		{
			"buffer":0,
			"byteLength":15872,
			"byteOffset":5013808,
			"target":34962
		},
		{
			"buffer":0,
			"byteLength":23808,
			"byteOffset":5029680,
			"target":34962
		},
		{
			"buffer":0,
			"byteLength":23808,
			"byteOffset":5053488,
			"target":34962
		},
		{
			"buffer":0,
			"byteLength":15872,
			"byteOffset":5077296,
			"target":34962
		}
	],
	"samplers":[
		{
			"magFilter":9729,
			"minFilter":9987
		}
	],
	"buffers":[
		{
			"byteLength":5093168,
			"uri":"rutherford.bin"
		}
	]
}
