{
	"asset":{
		"generator":"Khronos glTF Blender I/O v4.1.63",
		"version":"2.0"
	},
	"scene":0,
	"scenes":[
		{
			"name":"Scene",
			"nodes":[
				0,
				1,
				2,
				3,
				4,
				5,
				6,
				7,
				8,
				9,
				10,
				11,
				12,
				13,
				14,
				15
			]
		}
	],
	"nodes":[
		{
			"mesh":0,
			"name":"\u0e17\u0e23\u0e07\u0e01\u0e25\u0e21",
			"scale":[
				-0.13351641595363617,
				-0.13351641595363617,
				-0.13351641595363617
			]
		},
		{
			"mesh":1,
			"name":"Torus.004",
			"rotation":[
				0.7071068286895752,
				0,
				0,
				0.7071068286895752
			]
		},
		{
			"mesh":2,
			"name":"Torus.001",
			"rotation":[
				0.7071068286895752,
				0,
				0,
				0.7071068286895752
			],
			"scale":[
				0.6728981137275696,
				0.6728981137275696,
				0.6728981137275696
			],
			"translation":[
				-0.008662000298500061,
				0,
				0.005669073201715946
			]
		},
		{
			"mesh":3,
			"name":"\u0e17\u0e23\u0e07\u0e01\u0e25\u0e21.001",
			"scale":[
				0.04127933084964752,
				0.04127933084964752,
				0.04127933084964752
			],
			"translation":[
				0.2272404432296753,
				0.3679819107055664,
				0.0045702094212174416
			]
		},
		{
			"mesh":4,
			"name":"Torus.002",
			"rotation":[
				0.7071068286895752,
				0,
				0,
				0.7071068286895752
			],
			"scale":[
				1.5,
				1.5,
				1.5
			]
		},
		{
			"mesh":5,
			"name":"\u0e17\u0e23\u0e07\u0e01\u0e25\u0e21.015",
			"scale":[
				-0.052177008241415024,
				-0.052177008241415024,
				-0.052177008241415024
			],
			"translation":[
				-0.7464394569396973,
				0.5862153172492981,
				0.00993616133928299
			]
		},
		{
			"mesh":6,
			"name":"\u0e17\u0e23\u0e07\u0e01\u0e25\u0e21.003",
			"scale":[
				0.04747048765420914,
				0.04747048765420914,
				0.04747048765420914
			],
			"translation":[
				0.047273024916648865,
				0.6397477984428406,
				0.008737158961594105
			]
		},
		{
			"mesh":7,
			"name":"\u0e17\u0e23\u0e07\u0e01\u0e25\u0e21.002",
			"scale":[
				0.04127933084964752,
				0.04127933084964752,
				0.04127933084964752
			],
			"translation":[
				-0.25921186804771423,
				-0.3474559783935547,
				0.004570113494992256
			]
		},
		{
			"mesh":8,
			"name":"\u0e17\u0e23\u0e07\u0e01\u0e25\u0e21.004",
			"scale":[
				0.04747048765420914,
				0.04747048765420914,
				0.04747048765420914
			],
			"translation":[
				0.6393914222717285,
				0.005000762175768614,
				-0.00032127276062965393
			]
		},
		{
			"mesh":9,
			"name":"\u0e17\u0e23\u0e07\u0e01\u0e25\u0e21.005",
			"scale":[
				0.04747048765420914,
				0.04747048765420914,
				0.04747048765420914
			],
			"translation":[
				-0.635919451713562,
				0.008222813718020916,
				0.006684018298983574
			]
		},
		{
			"mesh":10,
			"name":"\u0e17\u0e23\u0e07\u0e01\u0e25\u0e21.006",
			"scale":[
				0.04747048765420914,
				0.04747048765420914,
				0.04747048765420914
			],
			"translation":[
				0.48654860258102417,
				0.39879485964775085,
				0.0016140714287757874
			]
		},
		{
			"mesh":11,
			"name":"\u0e17\u0e23\u0e07\u0e01\u0e25\u0e21.007",
			"scale":[
				0.04747048765420914,
				0.04747048765420914,
				0.04747048765420914
			],
			"translation":[
				-0.49799877405166626,
				0.3836270570755005,
				0.015256538987159729
			]
		},
		{
			"mesh":12,
			"name":"\u0e17\u0e23\u0e07\u0e01\u0e25\u0e21.008",
			"rotation":[
				0,
				0,
				1,
				1.6292068494294654e-07
			],
			"scale":[
				0.04747048765420914,
				0.04747048765420914,
				0.04747048765420914
			],
			"translation":[
				-0.021023675799369812,
				-0.6314370036125183,
				0.007734077516943216
			]
		},
		{
			"mesh":13,
			"name":"\u0e17\u0e23\u0e07\u0e01\u0e25\u0e21.012",
			"rotation":[
				0,
				0,
				1,
				1.6292068494294654e-07
			],
			"scale":[
				0.04747048765420914,
				0.04747048765420914,
				0.04747048765420914
			],
			"translation":[
				-0.491743266582489,
				-0.3986542224884033,
				0.002063129097223282
			]
		},
		{
			"mesh":14,
			"name":"\u0e17\u0e23\u0e07\u0e01\u0e25\u0e21.013",
			"rotation":[
				0,
				0,
				1,
				1.6292068494294654e-07
			],
			"scale":[
				0.04747048765420914,
				0.04747048765420914,
				0.04747048765420914
			],
			"translation":[
				0.499807208776474,
				-0.3957131803035736,
				0.005603328347206116
			]
		},
		{
			"mesh":15,
			"name":"\u0e17\u0e23\u0e07\u0e01\u0e25\u0e21.009",
			"scale":[
				-0.052177008241415024,
				-0.052177008241415024,
				-0.052177008241415024
			],
			"translation":[
				0.7462072372436523,
				-0.6145930290222168,
				-0.002595365047454834
			]
		}
	],
	"materials":[
		{
			"doubleSided":true,
			"name":"\u0e27\u0e31\u0e2a\u0e14\u0e38.012",
			"pbrMetallicRoughness":{
				"baseColorTexture":{
					"index":0
				},
				"metallicFactor":0,
				"roughnessFactor":0.5
			}
		},
		{
			"doubleSided":true,
			"name":"\u0e27\u0e31\u0e2a\u0e14\u0e38.014",
			"pbrMetallicRoughness":{
				"baseColorTexture":{
					"index":1
				},
				"metallicFactor":0,
				"roughnessFactor":0.5
			}
		},
		{
			"doubleSided":true,
			"name":"\u0e27\u0e31\u0e2a\u0e14\u0e38.015",
			"pbrMetallicRoughness":{
				"baseColorTexture":{
					"index":2
				},
				"metallicFactor":0,
				"roughnessFactor":0.5
			}
		},
		{
			"doubleSided":true,
			"name":"\u0e27\u0e31\u0e2a\u0e14\u0e38.010",
			"pbrMetallicRoughness":{
				"baseColorTexture":{
					"index":3
				},
				"metallicFactor":0,
				"roughnessFactor":0.5
			}
		},
		{
			"doubleSided":true,
			"name":"\u0e27\u0e31\u0e2a\u0e14\u0e38.013",
			"pbrMetallicRoughness":{
				"baseColorTexture":{
					"index":4
				},
				"metallicFactor":0,
				"roughnessFactor":0.5
			}
		},
		{
			"doubleSided":true,
			"name":"\u0e27\u0e31\u0e2a\u0e14\u0e38.001",
			"pbrMetallicRoughness":{
				"baseColorTexture":{
					"index":5
				},
				"metallicFactor":0,
				"roughnessFactor":0.5
			}
		},
		{
			"doubleSided":true,
			"name":"\u0e27\u0e31\u0e2a\u0e14\u0e38.003",
			"pbrMetallicRoughness":{
				"baseColorTexture":{
					"index":6
				},
				"metallicFactor":0,
				"roughnessFactor":0.5
			}
		}
	],
	"meshes":[
		{
			"name":"\u0e17\u0e23\u0e07\u0e01\u0e25\u0e21",
			"primitives":[
				{
					"attributes":{
						"POSITION":0,
						"NORMAL":1,
						"TEXCOORD_0":2
					},
					"indices":3,
					"material":0
				}
			]
		},
		{
			"name":"Mesh",
			"primitives":[
				{
					"attributes":{
						"POSITION":4,
						"NORMAL":5,
						"TEXCOORD_0":6
					},
					"indices":7,
					"material":1
				}
			]
		},
		{
			"name":"Torus.005",
			"primitives":[
				{
					"attributes":{
						"POSITION":8,
						"NORMAL":9,
						"TEXCOORD_0":10
					},
					"indices":11,
					"material":2
				}
			]
		},
		{
			"name":"\u0e17\u0e23\u0e07\u0e01\u0e25\u0e21.001",
			"primitives":[
				{
					"attributes":{
						"POSITION":12,
						"NORMAL":13,
						"TEXCOORD_0":14
					},
					"indices":15,
					"material":3
				}
			]
		},
		{
			"name":"Mesh",
			"primitives":[
				{
					"attributes":{
						"POSITION":16,
						"NORMAL":17,
						"TEXCOORD_0":18
					},
					"indices":19,
					"material":4
				}
			]
		},
		{
			"name":"\u0e17\u0e23\u0e07\u0e01\u0e25\u0e21.022",
			"primitives":[
				{
					"attributes":{
						"POSITION":20,
						"NORMAL":21,
						"TEXCOORD_0":22
					},
					"indices":3,
					"material":5
				}
			]
		},
		{
			"name":"\u0e17\u0e23\u0e07\u0e01\u0e25\u0e21.033",
			"primitives":[
				{
					"attributes":{
						"POSITION":23,
						"NORMAL":24,
						"TEXCOORD_0":25
					},
					"indices":3,
					"material":6
				}
			]
		},
		{
			"name":"\u0e17\u0e23\u0e07\u0e01\u0e25\u0e21.002",
			"primitives":[
				{
					"attributes":{
						"POSITION":26,
						"NORMAL":27,
						"TEXCOORD_0":28
					},
					"indices":15,
					"material":3
				}
			]
		},
		{
			"name":"\u0e17\u0e23\u0e07\u0e01\u0e25\u0e21.003",
			"primitives":[
				{
					"attributes":{
						"POSITION":29,
						"NORMAL":30,
						"TEXCOORD_0":31
					},
					"indices":3,
					"material":6
				}
			]
		},
		{
			"name":"\u0e17\u0e23\u0e07\u0e01\u0e25\u0e21.004",
			"primitives":[
				{
					"attributes":{
						"POSITION":32,
						"NORMAL":33,
						"TEXCOORD_0":34
					},
					"indices":3,
					"material":6
				}
			]
		},
		{
			"name":"\u0e17\u0e23\u0e07\u0e01\u0e25\u0e21.005",
			"primitives":[
				{
					"attributes":{
						"POSITION":35,
						"NORMAL":36,
						"TEXCOORD_0":37
					},
					"indices":3,
					"material":6
				}
			]
		},
		{
			"name":"\u0e17\u0e23\u0e07\u0e01\u0e25\u0e21.006",
			"primitives":[
				{
					"attributes":{
						"POSITION":38,
						"NORMAL":39,
						"TEXCOORD_0":40
					},
					"indices":3,
					"material":6
				}
			]
		},
		{
			"name":"\u0e17\u0e23\u0e07\u0e01\u0e25\u0e21.007",
			"primitives":[
				{
					"attributes":{
						"POSITION":41,
						"NORMAL":42,
						"TEXCOORD_0":43
					},
					"indices":3,
					"material":6
				}
			]
		},
		{
			"name":"\u0e17\u0e23\u0e07\u0e01\u0e25\u0e21.011",
			"primitives":[
				{
					"attributes":{
						"POSITION":44,
						"NORMAL":45,
						"TEXCOORD_0":46
					},
					"indices":3,
					"material":6
				}
			]
		},
		{
			"name":"\u0e17\u0e23\u0e07\u0e01\u0e25\u0e21.012",
			"primitives":[
				{
					"attributes":{
						"POSITION":47,
						"NORMAL":48,
						"TEXCOORD_0":49
					},
					"indices":3,
					"material":6
				}
			]
		},
		{
			"name":"\u0e17\u0e23\u0e07\u0e01\u0e25\u0e21.013",
			"primitives":[
				{
					"attributes":{
						"POSITION":50,
						"NORMAL":51,
						"TEXCOORD_0":52
					},
					"indices":3,
					"material":5
				}
			]
		}
	],
	"textures":[
		{
			"sampler":0,
			"source":0
		},
		{
			"sampler":0,
			"source":1
		},
		{
			"sampler":0,
			"source":1
		},
		{
			"sampler":0,
			"source":2
		},
		{
			"sampler":0,
			"source":1
		},
		{
			"sampler":0,
			"source":2
		},
		{
			"sampler":0,
			"source":2
		}
	],
	"images":[
		{
			"mimeType":"image/png",
			"name":"Untitled",
			"uri":"../bohr/textures/bohrv-1.png"
		},
		{
			"mimeType":"image/png",
			"name":"Untitled",
			"uri":"../bohr/textures/bohrv-2.png"
		},
		{
			"mimeType":"image/png",
			"name":"Untitled",
			"uri":"../bohr/textures/bohrv-3.png"
		}
	],
	"accessors":[
		{
			"bufferView":0,
			"componentType":5126,
			"count":33440,
			"max":[
				0.9872310161590576,
				0.9975767135620117,
				0.9872307181358337
			],
			"min":[
				-0.9872305393218994,
				-0.9975767135620117,
				-0.9872310161590576
			],
			"type":"VEC3"
		},
		{
			"bufferView":1,
			"componentType":5126,
			"count":33440,
			"type":"VEC3"
		},
		{
			"bufferView":2,
			"componentType":5126,
			"count":33440,
			"type":"VEC2"
		},
		{
			"bufferView":3,
			"componentType":5123,
			"count":190464,
			"type":"SCALAR"
		},
		{
			"bufferView":4,
			"componentType":5126,
			"count":524216,
			"max":[
				0.6561259627342224,
				0.017207762226462364,
				0.6561259627342224
			],
			"min":[
				-0.6561260223388672,
				-0.017207762226462364,
				-0.6561259627342224
			],
			"type":"VEC3"
		},
		{
			"bufferView":5,
			"componentType":5126,
			"count":524216,
			"type":"VEC3"
		},
		{
			"bufferView":6,
			"componentType":5126,
			"count":524216,
			"type":"VEC2"
		},
		{
			"bufferView":7,
			"componentType":5125,
			"count":786432,
			"type":"SCALAR"
		},
		{
			"bufferView":8,
			"componentType":5126,
			"count":512767,
			"max":[
				0.6561259627342224,
				0.01720777153968811,
				0.6561259627342224
			],
			"min":[
				-0.6561260223388672,
				-0.01720777153968811,
				-0.6561259627342224
			],
			"type":"VEC3"
		},
		{
			"bufferView":9,
			"componentType":5126,
			"count":512767,
			"type":"VEC3"
		},
		{
			"bufferView":10,
			"componentType":5126,
			"count":512767,
			"type":"VEC2"
		},
		{
			"bufferView":11,
			"componentType":5125,
			"count":775464,
			"type":"SCALAR"
		},
		{
			"bufferView":12,
			"componentType":5126,
			"count":32369,
			"max":[
				0.9872310161590576,
				0.9975767135620117,
				0.9872307181358337
			],
			"min":[
				-0.9872305393218994,
				-0.9975767135620117,
				-0.9872310161590576
			],
			"type":"VEC3"
		},
		{
			"bufferView":13,
			"componentType":5126,
			"count":32369,
			"type":"VEC3"
		},
		{
			"bufferView":14,
			"componentType":5126,
			"count":32369,
			"type":"VEC2"
		},
		{
			"bufferView":15,
			"componentType":5123,
			"count":190464,
			"type":"SCALAR"
		},
		{
			"bufferView":16,
			"componentType":5126,
			"count":523912,
			"max":[
				0.6497207283973694,
				0.010792682878673077,
				0.6497207880020142
			],
			"min":[
				-0.6497207880020142,
				-0.010792684741318226,
				-0.6497207283973694
			],
			"type":"VEC3"
		},
		{
			"bufferView":17,
			"componentType":5126,
			"count":523912,
			"type":"VEC3"
		},
		{
			"bufferView":18,
			"componentType":5126,
			"count":523912,
			"type":"VEC2"
		},
		{
			"bufferView":19,
			"componentType":5125,
			"count":786432,
			"type":"SCALAR"
		},
		{
			"bufferView":20,
			"componentType":5126,
			"count":33440,
			"max":[
				0.9872310161590576,
				0.9975767135620117,
				0.9872307181358337
			],
			"min":[
				-0.9872305393218994,
				-0.9975767135620117,
				-0.9872310161590576
			],
			"type":"VEC3"
		},
		{
			"bufferView":21,
			"componentType":5126,
			"count":33440,
			"type":"VEC3"
		},
		{
			"bufferView":22,
			"componentType":5126,
			"count":33440,
			"type":"VEC2"
		},
		{
			"bufferView":23,
			"componentType":5126,
			"count":33440,
			"max":[
				0.9872310161590576,
				0.9975767135620117,
				0.9872307181358337
			],
			"min":[
				-0.9872305393218994,
				-0.9975767135620117,
				-0.9872310161590576
			],
			"type":"VEC3"
		},
		{
			"bufferView":24,
			"componentType":5126,
			"count":33440,
			"type":"VEC3"
		},
		{
			"bufferView":25,
			"componentType":5126,
			"count":33440,
			"type":"VEC2"
		},
		{
			"bufferView":26,
			"componentType":5126,
			"count":32369,
			"max":[
				0.9872310161590576,
				0.9975767135620117,
				0.9872307181358337
			],
			"min":[
				-0.9872305393218994,
				-0.9975767135620117,
				-0.9872310161590576
			],
			"type":"VEC3"
		},
		{
			"bufferView":27,
			"componentType":5126,
			"count":32369,
			"type":"VEC3"
		},
		{
			"bufferView":28,
			"componentType":5126,
			"count":32369,
			"type":"VEC2"
		},
		{
			"bufferView":29,
			"componentType":5126,
			"count":33440,
			"max":[
				0.9872310161590576,
				0.9975767135620117,
				0.9872307181358337
			],
			"min":[
				-0.9872305393218994,
				-0.9975767135620117,
				-0.9872310161590576
			],
			"type":"VEC3"
		},
		{
			"bufferView":30,
			"componentType":5126,
			"count":33440,
			"type":"VEC3"
		},
		{
			"bufferView":31,
			"componentType":5126,
			"count":33440,
			"type":"VEC2"
		},
		{
			"bufferView":32,
			"componentType":5126,
			"count":33440,
			"max":[
				0.9872310161590576,
				0.9975767135620117,
				0.9872307181358337
			],
			"min":[
				-0.9872305393218994,
				-0.9975767135620117,
				-0.9872310161590576
			],
			"type":"VEC3"
		},
		{
			"bufferView":33,
			"componentType":5126,
			"count":33440,
			"type":"VEC3"
		},
		{
			"bufferView":34,
			"componentType":5126,
			"count":33440,
			"type":"VEC2"
		},
		{
			"bufferView":35,
			"componentType":5126,
			"count":33440,
			"max":[
				0.9872310161590576,
				0.9975767135620117,
				0.9872307181358337
			],
			"min":[
				-0.9872305393218994,
				-0.9975767135620117,
				-0.9872310161590576
			],
			"type":"VEC3"
		},
		{
			"bufferView":36,
			"componentType":5126,
			"count":33440,
			"type":"VEC3"
		},
		{
			"bufferView":37,
			"componentType":5126,
			"count":33440,
			"type":"VEC2"
		},
		{
			"bufferView":38,
			"componentType":5126,
			"count":33440,
			"max":[
				0.9872310161590576,
				0.9975767135620117,
				0.9872307181358337
			],
			"min":[
				-0.9872305393218994,
				-0.9975767135620117,
				-0.9872310161590576
			],
			"type":"VEC3"
		},
		{
			"bufferView":39,
			"componentType":5126,
			"count":33440,
			"type":"VEC3"
		},
		{
			"bufferView":40,
			"componentType":5126,
			"count":33440,
			"type":"VEC2"
		},
		{
			"bufferView":41,
			"componentType":5126,
			"count":33440,
			"max":[
				0.9872310161590576,
				0.9975767135620117,
				0.9872307181358337
			],
			"min":[
				-0.9872305393218994,
				-0.9975767135620117,
				-0.9872310161590576
			],
			"type":"VEC3"
		},
		{
			"bufferView":42,
			"componentType":5126,
			"count":33440,
			"type":"VEC3"
		},
		{
			"bufferView":43,
			"componentType":5126,
			"count":33440,
			"type":"VEC2"
		},
		{
			"bufferView":44,
			"componentType":5126,
			"count":33440,
			"max":[
				0.9872310161590576,
				0.9975767135620117,
				0.9872307181358337
			],
			"min":[
				-0.9872305393218994,
				-0.9975767135620117,
				-0.9872310161590576
			],
			"type":"VEC3"
		},
		{
			"bufferView":45,
			"componentType":5126,
			"count":33440,
			"type":"VEC3"
		},
		{
			"bufferView":46,
			"componentType":5126,
			"count":33440,
			"type":"VEC2"
		},
		{
			"bufferView":47,
			"componentType":5126,
			"count":33440,
			"max":[
				0.9872310161590576,
				0.9975767135620117,
				0.9872307181358337
			],
			"min":[
				-0.9872305393218994,
				-0.9975767135620117,
				-0.9872310161590576
			],
			"type":"VEC3"
		},
		{
			"bufferView":48,
			"componentType":5126,
			"count":33440,
			"type":"VEC3"
		},
		{
			"bufferView":49,
			"componentType":5126,
			"count":33440,
			"type":"VEC2"
		},
		{
			"bufferView":50,
			"componentType":5126,
			"count":33440,
			"max":[
				0.9872310161590576,
				0.9975767135620117,
				0.9872307181358337
			],
			"min":[
				-0.9872305393218994,
				-0.9975767135620117,
				-0.9872310161590576
			],
			"type":"VEC3"
		},
		{
			"bufferView":51,
			"componentType":5126,
			"count":33440,
			"type":"VEC3"
		},
		{
			"bufferView":52,
			"componentType":5126,
			"count":33440,
			"type":"VEC2"
		}
	],
	"bufferViews":[
		{
			"buffer":0,
			"byteLength":401280,
			"byteOffset":0,
			"target":34962
		},
		{
			"buffer":0,
			"byteLength":401280,
			"byteOffset":401280,
			"target":34962
		},
		{
			"buffer":0,
			"byteLength":267520,
			"byteOffset":802560,
			"target":34962
		},
		{
			"buffer":0,
			"byteLength":380928,
			"byteOffset":1070080,
			"target":34963
		},
		{
			"buffer":0,
			"byteLength":6290592,
			"byteOffset":1451008,
			"target":34962
		},
		{
			"buffer":0,
			"byteLength":6290592,
			"byteOffset":7741600,
			"target":34962
		},
		{
			"buffer":0,
			"byteLength":4193728,
			"byteOffset":14032192,
			"target":34962
		},
		{
			"buffer":0,
			"byteLength":3145728,
			"byteOffset":18225920,
			"target":34963
		},
		{
			"buffer":0,
			"byteLength":6153204,
			"byteOffset":21371648,
			"target":34962
		},
		{
			"buffer":0,
			"byteLength":6153204,
			"byteOffset":27524852,
			"target":34962
		},
		{
			"buffer":0,
			"byteLength":4102136,
			"byteOffset":33678056,
			"target":34962
		},
		{
			"buffer":0,
			"byteLength":3101856,
			"byteOffset":37780192,
			"target":34963
		},
		{
			"buffer":0,
			"byteLength":388428,
			"byteOffset":40882048,
			"target":34962
		},
		{
			"buffer":0,
			"byteLength":388428,
			"byteOffset":41270476,
			"target":34962
		},
		{
			"buffer":0,
			"byteLength":258952,
			"byteOffset":41658904,
			"target":34962
		},
		{
			"buffer":0,
			"byteLength":380928,
			"byteOffset":41917856,
			"target":34963
		},
		{
			"buffer":0,
			"byteLength":6286944,
			"byteOffset":42298784,
			"target":34962
		},
		{
			"buffer":0,
			"byteLength":6286944,
			"byteOffset":48585728,
			"target":34962
		},
		{
			"buffer":0,
			"byteLength":4191296,
			"byteOffset":54872672,
			"target":34962
		},
		{
			"buffer":0,
			"byteLength":3145728,
			"byteOffset":59063968,
			"target":34963
		},
		{
			"buffer":0,
			"byteLength":401280,
			"byteOffset":62209696,
			"target":34962
		},
		{
			"buffer":0,
			"byteLength":401280,
			"byteOffset":62610976,
			"target":34962
		},
		{
			"buffer":0,
			"byteLength":267520,
			"byteOffset":63012256,
			"target":34962
		},
		{
			"buffer":0,
			"byteLength":401280,
			"byteOffset":63279776,
			"target":34962
		},
		{
			"buffer":0,
			"byteLength":401280,
			"byteOffset":63681056,
			"target":34962
		},
		{
			"buffer":0,
			"byteLength":267520,
			"byteOffset":64082336,
			"target":34962
		},
		{
			"buffer":0,
			"byteLength":388428,
			"byteOffset":64349856,
			"target":34962
		},
		{
			"buffer":0,
			"byteLength":388428,
			"byteOffset":64738284,
			"target":34962
		},
		{
			"buffer":0,
			"byteLength":258952,
			"byteOffset":65126712,
			"target":34962
		},
		{
			"buffer":0,
			"byteLength":401280,
			"byteOffset":65385664,
			"target":34962
		},
		{
			"buffer":0,
			"byteLength":401280,
			"byteOffset":65786944,
			"target":34962
		},
		{
			"buffer":0,
			"byteLength":267520,
			"byteOffset":66188224,
			"target":34962
		},
		{
			"buffer":0,
			"byteLength":401280,
			"byteOffset":66455744,
			"target":34962
		},
		{
			"buffer":0,
			"byteLength":401280,
			"byteOffset":66857024,
			"target":34962
		},
		{
			"buffer":0,
			"byteLength":267520,
			"byteOffset":67258304,
			"target":34962
		},
		{
			"buffer":0,
			"byteLength":401280,
			"byteOffset":67525824,
			"target":34962
		},
		{
			"buffer":0,
			"byteLength":401280,
			"byteOffset":67927104,
			"target":34962
		},
		{
			"buffer":0,
			"byteLength":267520,
			"byteOffset":68328384,
			"target":34962
		},
		{
			"buffer":0,
			"byteLength":401280,
			"byteOffset":68595904,
			"target":34962
		},
		{
			"buffer":0,
			"byteLength":401280,
			"byteOffset":68997184,
			"target":34962
		},
		{
			"buffer":0,
			"byteLength":267520,
			"byteOffset":69398464,
			"target":34962
		},
		{
			"buffer":0,
			"byteLength":401280,
			"byteOffset":69665984,
			"target":34962
		},
		{
			"buffer":0,
			"byteLength":401280,
			"byteOffset":70067264,
			"target":34962
		},
		{
			"buffer":0,
			"byteLength":267520,
			"byteOffset":70468544,
			"target":34962
		},
		{
			"buffer":0,
			"byteLength":401280,
			"byteOffset":70736064,
			"target":34962
		},
		{
			"buffer":0,
			"byteLength":401280,
			"byteOffset":71137344,
			"target":34962
		},
		{
			"buffer":0,
			"byteLength":267520,
			"byteOffset":71538624,
			"target":34962
		},
		{
			"buffer":0,
			"byteLength":401280,
			"byteOffset":71806144,
			"target":34962
		},
		{
			"buffer":0,
			"byteLength":401280,
			"byteOffset":72207424,
			"target":34962
		},
		{
			"buffer":0,
			"byteLength":267520,
			"byteOffset":72608704,
			"target":34962
		},
		{
			"buffer":0,
			"byteLength":401280,
			"byteOffset":72876224,
			"target":34962
		},
		{
			"buffer":0,
			"byteLength":401280,
			"byteOffset":73277504,
			"target":34962
		},
		{
			"buffer":0,
			"byteLength":267520,
			"byteOffset":73678784,
			"target":34962
		}
	],
	"samplers":[
		{
			"magFilter":9729,
			"minFilter":9987
		}
	],
	"buffers":[
		{
			"byteLength":73946304,
			"uri":"bohrv.bin"
		}
	]
}
